# xmcd
#
# Track frame offsets:
#	150
#	20310
#	35377
#	64380
#	80505
#	98765
#	119747
#	143882
#	159815
#	180280
#	205452
#	227637
#
# Disc length: 3277 seconds
#
# Revision: 0
# Processed by: cddbd v1.5.1PL0 Copyright (c) Steve Scherf et al.
# Submitted via: dBpowerAMP V4.0
#
DISCID=990ccb0c
DTITLE=Glenn Lane - Me and the Blues
DYEAR=1900
DGENRE=Blues
TTITLE0=Stay Gone
TTITLE1=Can't Leave These Railroad Tracks
TTITLE2=Moody Woman
TTITLE3=Me and the Blues
TTITLE4=Telephone Call
TTITLE5=Little Money, Big Trouble
TTITLE6=I'm Losing You
TTITLE7=You Never Gave Up
TTITLE8=Gotta Get Rid of the Blues
TTITLE9=Full Figured Woman
TTITLE10=I'm on Fire
TTITLE11=Lawdy, Lawdy, Lawdy
EXTD=
EXTT0=
EXTT1=
EXTT2=
EXTT3=
EXTT4=
EXTT5=
EXTT6=
EXTT7=
EXTT8=
EXTT9=
EXTT10=
EXTT11=
PLAYORDER=
